<mxfile host="app.diagrams.net" modified="2024-02-19T11:09:13.563Z" agent="Mozilla/5.0 (Macintosh; Intel Mac OS X 10_15_7) AppleWebKit/537.36 (KHTML, like Gecko) Chrome/121.0.0.0 Safari/537.36" version="23.1.5" etag="Eo3E0mBMT4vRkhUHDTPz" type="github">
  <diagram name="Page-1" id="espEUnQpa_zRcu58Kpjv">
    <mxGraphModel>
      <root>
        <mxCell id="0" />
        <mxCell id="1" parent="0" />
      </root>
    </mxGraphModel>
  </diagram>
</mxfile>
